<svg data-v-423bf9ae="" xmlns="http://www.w3.org/2000/svg" viewBox="0 0 256.2671801893559 60" class="font"><!----><!----><!----><g data-v-423bf9ae="" id="474d3e97-41b3-4721-b179-9c76f048a86b" fill="black" transform="matrix(5.89390945003159,0,0,5.89390945003159,-0.8251442046569935,-17.092337490341457)"><path d="M4.68 10.75L4.68 10.75Q4.68 11.35 4.45 11.80Q4.21 12.25 3.92 12.46Q3.63 12.67 3.22 12.80L3.22 12.80Q2.69 12.96 2.25 12.96L2.25 12.96Q1.34 12.96 0.74 12.61Q0.14 12.25 0.14 11.47L0.14 11.47Q0.14 11.00 0.39 10.71L0.39 10.71Q0.78 10.28 1.33 10.28L1.33 10.28Q1.50 10.28 1.50 10.43L1.50 10.43Q1.50 10.44 1.44 10.65Q1.37 10.85 1.37 11.16Q1.37 11.47 1.62 11.70Q1.86 11.94 2.21 11.94Q2.56 11.94 2.77 11.82Q2.98 11.70 3.07 11.52L3.07 11.52Q3.19 11.27 3.19 11.05L3.19 11.05Q3.19 10.64 2.79 10.35Q2.38 10.05 1.89 9.88Q1.40 9.72 0.99 9.32Q0.59 8.93 0.59 8.34L0.59 8.34Q0.59 7.34 1.23 6.83Q1.86 6.33 2.95 6.33L2.95 6.33Q3.43 6.33 3.96 6.46Q4.48 6.59 4.48 6.91Q4.48 7.22 4.38 7.49Q4.27 7.76 4.12 7.76L4.12 7.76Q4.03 7.76 4.00 7.69Q3.98 7.63 3.91 7.55Q3.84 7.46 3.57 7.33Q3.30 7.20 3.12 7.20Q2.93 7.20 2.86 7.20Q2.80 7.21 2.65 7.25Q2.49 7.28 2.37 7.35L2.37 7.35Q2.04 7.53 2.04 7.88L2.04 7.88Q2.04 8.11 2.14 8.21Q2.24 8.32 2.30 8.37Q2.35 8.43 2.49 8.50Q2.63 8.58 2.69 8.61Q2.74 8.64 2.94 8.73Q3.14 8.82 3.19 8.85L3.19 8.85Q4.68 9.55 4.68 10.75ZM8.12 8.13L8.12 8.13Q8.06 8.19 8.06 8.25Q8.06 8.32 8.32 8.37Q8.58 8.43 8.89 8.68Q9.20 8.93 9.35 9.23L9.35 9.23Q9.65 9.80 9.67 10.23L9.67 10.23L9.69 10.42Q9.76 12.05 10.29 12.66L10.29 12.66Q10.36 12.75 10.36 12.80L10.36 12.80Q10.36 12.95 9.97 12.95L9.97 12.95Q8.79 12.95 8.47 12.46L8.47 12.46Q8.30 12.26 8.30 11.24L8.30 11.24L8.30 10.89Q8.30 9.59 7.98 9.09L7.98 9.09Q7.81 8.85 7.57 8.85Q7.32 8.85 7.06 9.28Q6.79 9.70 6.79 10.00L6.79 10.00Q6.79 11.17 6.85 11.63Q6.90 12.10 6.90 12.11L6.90 12.11Q6.90 12.52 6.35 12.74Q5.80 12.96 5.31 12.96L5.31 12.96Q5.12 12.96 5.12 12.74L5.12 12.74L5.12 12.68Q5.46 10.96 5.46 7.25L5.46 7.25Q5.46 6.03 5.40 5.19L5.40 5.19L5.38 4.91Q5.35 4.52 5.21 4.24Q5.08 3.96 4.96 3.88L4.96 3.88L4.84 3.81Q4.75 3.75 4.75 3.68L4.75 3.68Q4.75 3.46 5.42 3.18Q6.09 2.90 6.58 2.90L6.58 2.90Q6.80 2.91 6.82 3.07L6.82 3.07Q6.89 3.63 6.89 5.37Q6.89 7.11 6.80 8.15L6.80 8.15Q6.80 8.32 6.86 8.32Q6.92 8.32 7.04 8.16Q7.15 7.99 7.46 7.64Q7.76 7.29 8.27 6.83Q8.78 6.37 9.09 6.37Q9.41 6.37 9.72 6.52Q10.02 6.68 10.02 6.82L10.02 6.82L9.87 6.92Q9.07 7.21 8.12 8.13ZM12.00 7.39L12.00 7.39Q11.63 7.41 11.47 7.41Q11.31 7.42 11.31 7.34Q11.31 7.25 11.40 7.17L11.40 7.17Q12.29 6.34 14.42 6.34L14.42 6.34Q15.15 6.34 15.57 6.47L15.57 6.47L15.71 6.51Q15.88 6.58 15.88 6.66L15.88 6.66Q15.88 6.73 15.78 6.78L15.78 6.78Q15.40 6.89 15.05 7.13Q14.70 7.38 14.70 7.48L14.70 7.48L14.78 7.57Q15.23 7.83 15.48 8.37Q15.72 8.92 15.75 9.34L15.75 9.34L15.78 9.77Q15.78 11.16 15.01 12.05Q14.24 12.95 12.91 12.95L12.91 12.95Q12.24 12.95 11.75 12.71Q11.26 12.47 11.03 12.17Q10.79 11.87 10.65 11.49L10.65 11.49Q10.49 10.98 10.49 10.42Q10.49 9.87 10.67 9.31Q10.86 8.75 11.11 8.48Q11.35 8.22 11.66 8.05L11.66 8.05Q12.05 7.84 12.29 7.84Q12.53 7.84 12.53 7.94L12.53 7.94L12.45 8.08Q12.14 8.44 12.00 9.03Q11.87 9.62 11.87 10.07Q11.87 10.53 11.98 10.98Q12.10 11.42 12.24 11.64Q12.38 11.86 12.56 11.97L12.56 11.97Q12.82 12.14 13.12 12.14Q13.41 12.14 13.69 11.91Q13.97 11.68 14.10 11.30L14.10 11.30Q14.35 10.60 14.35 9.86L14.35 9.86Q14.35 8.68 13.75 8.04Q13.16 7.39 12.00 7.39ZM17.88 7.39L17.88 7.39Q17.51 7.41 17.35 7.41Q17.19 7.42 17.19 7.34Q17.19 7.25 17.28 7.17L17.28 7.17Q18.17 6.34 20.30 6.34L20.30 6.34Q21.03 6.34 21.45 6.47L21.45 6.47L21.59 6.51Q21.76 6.58 21.76 6.66L21.76 6.66Q21.76 6.73 21.66 6.78L21.66 6.78Q21.28 6.89 20.93 7.13Q20.58 7.38 20.58 7.48L20.58 7.48L20.66 7.57Q21.11 7.83 21.36 8.37Q21.60 8.92 21.63 9.34L21.63 9.34L21.66 9.77Q21.66 11.16 20.89 12.05Q20.12 12.95 18.79 12.95L18.79 12.95Q18.12 12.95 17.63 12.71Q17.14 12.47 16.90 12.17Q16.67 11.87 16.53 11.49L16.53 11.49Q16.37 10.98 16.37 10.42Q16.37 9.87 16.55 9.31Q16.74 8.75 16.99 8.48Q17.23 8.22 17.54 8.05L17.54 8.05Q17.93 7.84 18.17 7.84Q18.41 7.84 18.41 7.94L18.41 7.94L18.33 8.08Q18.02 8.44 17.88 9.03Q17.75 9.62 17.75 10.07Q17.75 10.53 17.86 10.98Q17.98 11.42 18.12 11.64Q18.26 11.86 18.44 11.97L18.44 11.97Q18.70 12.14 19.00 12.14Q19.29 12.14 19.57 11.91Q19.85 11.68 19.98 11.30L19.98 11.30Q20.23 10.60 20.23 9.86L20.23 9.86Q20.23 8.68 19.63 8.04Q19.04 7.39 17.88 7.39ZM24.00 4.66L24.00 4.66L23.91 9.80Q23.91 12.21 24.07 12.68L24.07 12.68Q24.11 12.77 24.11 12.85L24.11 12.85Q24.11 13.02 23.70 13.02Q23.30 13.02 22.80 12.82Q22.30 12.61 22.30 12.29L22.30 12.29Q22.58 10.33 22.58 7.06L22.58 7.06L22.53 4.91Q22.50 4.52 22.36 4.24Q22.23 3.96 22.11 3.88L22.11 3.88L21.99 3.81Q21.90 3.75 21.90 3.68L21.90 3.68Q21.90 3.49 22.50 3.20Q23.11 2.91 23.69 2.91L23.69 2.91Q23.91 2.91 23.94 3.07L23.94 3.07Q24.00 3.43 24.00 4.66ZM24.74 7.21L24.74 7.21L24.78 6.65Q24.79 6.52 24.98 6.52L24.98 6.52L25.47 6.52L25.41 5.40L25.41 5.35Q25.41 5.03 25.90 4.73Q26.39 4.44 26.80 4.44L26.80 4.44Q26.92 4.44 26.92 4.55L26.92 4.55L26.92 4.56Q26.87 4.94 26.81 6.51L26.81 6.51Q27.43 6.51 27.59 6.48Q27.76 6.45 27.78 6.45L27.78 6.45Q27.87 6.45 27.87 6.62Q27.87 6.79 27.72 7.05Q27.57 7.31 27.38 7.32L27.38 7.32L26.80 7.32Q26.78 7.80 26.78 8.93Q26.78 10.05 26.80 10.78Q26.82 11.51 26.85 11.88Q26.88 12.25 26.91 12.47Q26.95 12.70 26.97 12.80Q26.99 12.89 26.99 12.92L26.99 12.92Q26.99 13.06 26.81 13.08L26.81 13.08Q26.26 13.08 25.72 12.92Q25.19 12.77 25.19 12.39L25.19 12.39Q25.48 10.04 25.48 7.34L25.48 7.34Q25.10 7.34 24.91 7.36L24.91 7.36L24.89 7.36Q24.77 7.36 24.74 7.21ZM29.27 9.11L29.27 9.11L29.29 9.46Q29.29 9.55 29.40 9.55L29.40 9.55Q29.85 9.51 30.18 9.32Q30.52 9.13 30.69 8.89L30.69 8.89Q31.02 8.37 31.05 7.99L31.05 7.99L31.07 7.83Q31.07 7.07 30.46 7.07L30.46 7.07Q30.02 7.07 29.74 7.46L29.74 7.46Q29.27 8.08 29.27 9.11ZM32.33 10.98L32.33 10.98Q32.33 11.51 32.11 11.91Q31.89 12.31 31.62 12.49Q31.35 12.68 30.98 12.80L30.98 12.80Q30.52 12.94 30.10 12.94L30.10 12.94Q28.92 12.94 28.36 12.05Q27.80 11.17 27.80 9.81Q27.80 8.44 28.50 7.38Q29.19 6.31 30.58 6.31L30.58 6.31Q31.84 6.31 32.28 7.20L32.28 7.20Q32.47 7.53 32.47 7.83Q32.47 8.13 32.44 8.31Q32.41 8.48 32.24 8.83Q32.07 9.18 31.79 9.46Q31.51 9.74 30.91 10.00Q30.31 10.25 29.50 10.33L29.50 10.33Q29.39 10.33 29.39 10.43L29.39 10.43Q29.39 10.56 29.48 10.80Q29.57 11.05 29.68 11.21L29.68 11.21Q29.99 11.61 30.59 11.61L30.59 11.61Q31.19 11.61 31.61 11.21L31.61 11.21Q31.84 11.00 31.98 10.70L31.98 10.70Q32.03 10.58 32.12 10.58Q32.21 10.58 32.27 10.74Q32.33 10.89 32.33 10.98ZM37.67 11.06L37.67 11.06Q37.67 11.86 37.04 12.38Q36.40 12.91 35.52 12.91L35.52 12.91Q34.23 12.91 33.63 12.13Q33.03 11.35 33.03 10.02L33.03 10.02Q33.03 8.61 33.66 7.52L33.66 7.52Q33.96 6.96 34.54 6.64Q35.11 6.31 35.88 6.31L35.88 6.31Q37.04 6.31 37.52 7.10L37.52 7.10Q37.72 7.42 37.72 7.85L37.72 7.85Q37.72 8.53 37.16 8.86L37.16 8.86Q36.93 8.99 36.74 8.99Q36.55 8.99 36.43 8.97Q36.32 8.95 36.12 8.78Q35.92 8.61 35.92 8.32L35.92 8.32Q35.94 8.16 36.16 8.06L36.16 8.06Q36.37 7.94 36.37 7.62L36.37 7.62Q36.37 7.07 35.70 7.07L35.70 7.07Q35.53 7.07 35.30 7.22Q35.07 7.36 34.92 7.59Q34.76 7.83 34.63 8.32Q34.50 8.82 34.50 9.28Q34.50 9.73 34.53 9.96Q34.57 10.19 34.68 10.59Q34.80 10.99 35.13 11.24Q35.46 11.49 35.95 11.49L35.95 11.49Q36.54 11.49 36.99 11.00L36.99 11.00Q37.17 10.81 37.28 10.53L37.28 10.53Q37.34 10.42 37.42 10.42L37.42 10.42Q37.55 10.42 37.61 10.65Q37.67 10.88 37.67 11.06ZM40.08 5.15L40.08 5.15L40.07 6.51Q40.07 6.59 40.12 6.59Q40.18 6.59 40.24 6.55L40.24 6.55Q40.59 6.31 41.34 6.31L41.34 6.31Q42.62 6.31 43.11 7.18L43.11 7.18Q43.29 7.50 43.29 8.04Q43.29 8.57 43.22 9.51Q43.16 10.44 43.16 10.84L43.16 10.84Q43.16 12.21 43.55 12.66L43.55 12.66Q43.62 12.73 43.62 12.80L43.62 12.80Q43.62 12.94 43.02 12.94L43.02 12.94Q41.40 12.94 41.40 11.42L41.40 11.42Q41.40 10.84 41.68 9.77Q41.96 8.71 41.96 8.20Q41.96 7.70 41.72 7.43Q41.48 7.15 41.06 7.15Q40.64 7.15 40.40 7.34Q40.15 7.52 40.10 7.71L40.10 7.71L40.05 7.90Q40.04 8.16 40.04 9.59Q40.04 11.02 40.11 11.45Q40.18 11.87 40.18 11.93L40.18 11.93Q40.18 12.33 39.63 12.65Q39.09 12.96 38.56 12.96L38.56 12.96Q38.36 12.96 38.36 12.74L38.36 12.74L38.39 12.47Q38.70 10.12 38.70 7.38L38.70 7.38Q38.70 6.31 38.61 5.22L38.61 5.22L38.60 4.91Q38.57 4.52 38.44 4.24Q38.30 3.96 38.19 3.88L38.19 3.88L38.07 3.81Q37.97 3.75 37.97 3.68L37.97 3.68Q37.97 3.49 38.63 3.20Q39.28 2.91 39.64 2.91Q40.00 2.91 40.03 3.07L40.03 3.07Q40.08 3.78 40.08 5.15Z"></path></g><!----><!----></svg>